<svg width="180" height="46" viewBox="0 0 180 46" fill="none" xmlns="http://www.w3.org/2000/svg">
<path d="M95.3154 12.502C97.6564 12.502 99.9559 13.3382 101.669 14.9678H101.754V12.792H106.429V31.8418C106.429 38.0282 103.586 42.5 96.0195 42.5C92.973 42.4999 90.0131 41.7511 87.7138 40.376L89.7626 36.7529C91.5835 37.664 93.2622 38.2783 95.7685 38.2783C98.1598 38.2783 100.608 37.1358 101.503 34.7979C101.918 33.7157 101.882 32.498 101.849 31.3281C101.839 31.0113 101.83 30.6978 101.83 30.3916H101.747C100.208 31.9378 98.075 32.8574 95.5673 32.8574C89.8823 32.8574 85.6183 28.8455 85.6181 22.7842C85.6181 16.8133 89.672 12.5021 95.3154 12.502ZM56.3789 12.5C62.1055 12.5 65.9929 16.8054 65.9931 22.7402C65.988 23.3414 65.9462 23.942 65.8681 24.5381H50.9863C51.5726 27.5055 53.7875 29.2616 56.9648 29.2617V29.2607C59.0745 29.2607 60.6087 28.4399 61.6621 27.375L64.9414 30.1914C63.2355 32.14 60.7548 33.5244 56.7138 33.5244C50.5271 33.5244 46.1376 29.3851 46.1376 22.9902C46.1379 16.7221 50.4007 12.5 56.3789 12.5ZM121.375 12.5C127.102 12.5001 130.989 16.8055 130.989 22.7402C130.984 23.3413 130.942 23.942 130.864 24.5381H115.982C116.569 27.5056 118.784 29.2617 121.961 29.2617V29.2607C124.071 29.2607 125.604 28.4398 126.657 27.375L129.937 30.1914C128.232 32.14 125.751 33.5243 121.71 33.5244C115.523 33.5244 111.134 29.3851 111.134 22.9902C111.134 16.7221 115.397 12.5 121.375 12.5ZM145.776 12.5C152.046 12.5 156.477 16.7643 156.477 23.0342C156.477 29.2205 152.046 33.5244 145.776 33.5244C139.338 33.5242 135.076 29.0106 135.076 23.0342C135.076 17.0145 139.34 12.5002 145.776 12.5ZM172.517 12.5C176.99 12.5 180 15.0495 180 21.1943V33.1914H175.318V22.4131C175.318 18.1021 173.688 16.7276 170.888 16.7275C167.71 16.7275 165.62 18.9439 165.62 22.9561V33.1982H160.938L160.942 12.792H165.62V15.5928H165.704C167.377 13.5811 169.842 12.5001 172.517 12.5ZM82.6796 17.7256C82.1364 17.6839 81.5926 17.6416 81.2578 17.6416C77.7054 17.6417 75.6982 20.1916 75.6982 23.5342V33.1895H71.0175V12.792H75.6992V15.8438H75.7822C77.3702 13.7127 79.6287 12.5 82.0947 12.5H82.6796V17.7256ZM16.7822 13.2334C17.0697 12.9798 17.5006 12.9798 17.788 13.2334L33.4697 27.1455L33.4707 27.1484C34.8409 28.3978 34.9533 30.5164 33.7226 31.9033C32.4918 33.2902 30.374 33.4308 28.9707 32.2188L17.2793 21.8457L5.58882 32.1953C4.18314 33.3936 2.0772 33.246 0.852493 31.8633C-0.372107 30.4805 -0.264738 28.3716 1.09468 27.1211L16.7822 13.2334ZM4.39839 28.6729C4.04442 28.3031 3.5169 28.1558 3.02242 28.2881C2.50348 28.4073 2.09766 28.8121 1.97847 29.3311C1.86901 29.8025 2.01016 30.2975 2.35152 30.6406C2.69278 30.9834 3.18641 31.1264 3.65816 31.0195V31.0186C4.16028 30.9186 4.56862 30.5527 4.72261 30.0645C4.87653 29.5763 4.75225 29.0427 4.39839 28.6729ZM32.2675 28.6709C31.9135 28.3013 31.386 28.1537 30.8916 28.2861C30.3728 28.4053 29.9679 28.8105 29.8486 29.3291C29.7391 29.8004 29.8795 30.2956 30.2207 30.6387C30.562 30.9817 31.0563 31.1256 31.5283 31.0186V31.0166C32.0305 30.9167 32.4388 30.5508 32.5927 30.0625C32.7465 29.5743 32.6215 29.0407 32.2675 28.6709ZM145.776 16.7227C142.224 16.7229 139.84 19.4819 139.84 23.0342C139.84 26.5029 142.264 29.2615 145.776 29.2617C149.082 29.2617 151.714 26.7129 151.714 23.0342C151.714 19.272 149.126 16.7227 145.776 16.7227ZM96.1933 16.7666C92.7244 16.7668 90.3837 19.1903 90.3837 22.6592C90.3839 26.2931 92.8883 28.5506 96.1933 28.5508V28.5547C99.579 28.5547 101.962 26.046 101.962 22.5771C101.962 19.1081 99.4541 16.7666 96.1933 16.7666ZM56.3339 16.7207C53.743 16.7208 51.7356 18.1838 51.0673 20.8594H61.2705C60.6855 18.3936 59.0145 16.7208 56.3388 16.7207H56.3339ZM121.33 16.7207C118.739 16.7208 116.732 18.1838 116.063 20.8594H126.267C125.682 18.3936 124.01 16.7209 121.335 16.7207H121.33Z" fill="#0970CE"/>
</svg>
