<svg width="197" height="28" viewBox="0 0 197 28" fill="none" xmlns="http://www.w3.org/2000/svg">
<path d="M187.948 26.5705L181.206 15.1857H180.596L171.022 0.999504H179.556L186.083 11.7379H186.693L196.375 26.5705H187.948ZM170.555 26.5705L179.736 12.8871L185.545 15.3293L178.767 26.5705H170.555ZM186.8 14.6829L180.991 12.2407L187.697 0.999504H195.909L186.8 14.6829Z" fill="#FF923F"/>
<path d="M157.935 0.499855C159.868 0.520721 161.644 0.85404 163.264 1.50278C164.961 2.14923 166.433 3.07033 167.676 4.26743C168.919 5.46434 169.875 6.87706 170.544 8.50474C171.238 10.1088 171.584 11.8697 171.584 13.785C171.584 15.6762 171.237 17.4364 170.544 19.0643C169.875 20.6681 168.919 22.0808 167.676 23.3016C166.433 24.4987 164.974 25.433 163.3 26.1034C161.866 26.6574 160.317 26.9728 158.655 27.0516L157.935 27.0711H136.021C134.088 27.0503 132.311 26.7179 130.692 26.0692C128.994 25.4227 127.523 24.5007 126.28 23.3036C125.037 22.1067 124.081 20.694 123.412 19.0663C122.718 17.4623 122.372 15.7021 122.371 13.787C122.371 11.8956 122.718 10.1347 123.412 8.50669C124.081 6.90297 125.037 5.49022 126.28 4.26939C127.523 3.07228 128.982 2.13802 130.656 1.46763C132.295 0.83447 134.084 0.5128 136.021 0.499855H157.935ZM136.021 6.82505C134.764 6.85153 133.668 7.13387 132.736 7.68052C131.756 8.25511 131.002 9.06951 130.476 10.1229C129.95 11.1761 129.687 12.409 129.687 13.8211C129.687 14.8746 129.843 15.822 130.154 16.66C130.441 17.5216 130.871 18.2511 131.445 18.8495C132.019 19.472 132.712 19.9396 133.525 20.2508C134.263 20.5642 135.095 20.7296 136.021 20.7499V20.7508H157.935V20.7469C159.192 20.7204 160.287 20.4371 161.22 19.8905C162.2 19.316 162.954 18.5023 163.48 17.4491C164.006 16.3958 164.269 15.1622 164.269 13.7499C164.269 12.6965 164.113 11.7499 163.802 10.912C163.515 10.0502 163.085 9.32001 162.511 8.72153C161.937 8.09905 161.244 7.63142 160.431 7.32017C159.693 7.0068 158.861 6.84237 157.935 6.82212V6.82114H136.021V6.82505Z" fill="#FF1A00"/>
<path d="M99.4625 26.5705V0.999504H106.635V26.5705H99.4625ZM105.272 17.4842V11.5224H117.823V17.4842H105.272ZM105.272 6.96128V0.999504H118.361V6.96128H105.272Z" fill="#FF1A00"/>
<path d="M79.8952 26.571V1H87.0673V26.571H79.8952ZM72.2569 7.10543V1H94.7415V7.10543H72.2569Z" fill="#FF1A00"/>
<path d="M47.6295 26.571L57.3477 1H64.6632L74.2738 26.571H66.8148L59.6786 4.84283H62.2606L54.945 26.571H47.6295ZM53.9409 22.2613V16.6586H68.2134V22.2613H53.9409Z" fill="#FF1A00"/>
<path d="M24.6346 26.571V1H31.8068V26.571H24.6346ZM30.4441 26.571V20.6092H44.1428V26.571H30.4441ZM30.4441 16.4432V10.625H42.8159V16.4432H30.4441ZM30.4441 6.96178V1H43.9276V6.96178H30.4441Z" fill="#FF1A00"/>
<path d="M5.80941 26.571V21.3993H10.5071C11.4156 21.3993 12.1448 21.1599 12.6946 20.6811C13.2445 20.1783 13.5194 19.4959 13.5194 18.6339C13.5194 18.0593 13.3879 17.5685 13.125 17.1614C12.8859 16.7305 12.5392 16.4072 12.085 16.1918C11.6547 15.9763 11.1287 15.8685 10.5071 15.8685H5.80941V10.9124H10.1844C10.9494 10.9124 11.583 10.7208 12.085 10.3377C12.5871 9.95464 12.8381 9.35607 12.8381 8.54201C12.8381 7.72795 12.5871 7.12938 12.085 6.74629C11.583 6.36321 10.9494 6.17166 10.1844 6.17166H5.80941V1H12.1926C13.7465 1 15.0973 1.29929 16.2448 1.89786C17.4163 2.47249 18.3247 3.27457 18.9702 4.30412C19.6157 5.30972 19.9385 6.47095 19.9385 7.78781C19.9385 9.60747 19.293 11.0919 18.002 12.2412C16.711 13.3904 14.8224 14.0489 12.336 14.2165L12.2643 11.7384C14.9658 11.906 17.0338 12.6482 18.4682 13.9651C19.9026 15.2819 20.6198 16.9699 20.6198 19.029C20.6198 20.5135 20.2493 21.8303 19.5081 22.9796C18.767 24.1049 17.7271 24.9908 16.3883 25.6372C15.0734 26.2597 13.5314 26.571 11.7623 26.571H5.80941ZM0 26.571V1H7.02867V26.571H0Z" fill="#FF1A00"/>
</svg>
