<svg width="96" height="56" viewBox="0 0 96 56" fill="none" xmlns="http://www.w3.org/2000/svg">
<path d="M87.5728 55.4995L80.831 44.1147H80.2214L70.6466 29.9285H79.1814L85.708 40.6669H86.3177L96 55.4995H87.5728ZM70.1804 55.4995L79.3607 41.8161L85.1701 44.2583L78.3925 55.4995H70.1804ZM86.4252 43.6119L80.6158 41.1697L87.3218 29.9285H95.5338L86.4252 43.6119Z" fill="#FF923F"/>
<path d="M57.56 29.4288C59.493 29.4497 61.2695 29.783 62.8891 30.4318C64.5864 31.0782 66.058 31.9993 67.3012 33.1964C68.544 34.3933 69.5 35.806 70.1693 37.4337C70.8626 39.0378 71.2093 40.7987 71.2094 42.714C71.2093 44.6052 70.8625 46.3654 70.1693 47.9933C69.5001 49.597 68.5439 51.0097 67.3012 52.2306C66.058 53.4277 64.5986 54.362 62.9252 55.0323C61.4909 55.5864 59.9424 55.9018 58.2797 55.9806L57.56 56.0001H35.6459C33.7129 55.9793 31.9363 55.6469 30.3168 54.9982C28.6194 54.3517 27.1478 53.4296 25.9047 52.2325C24.6619 51.0356 23.7058 49.6229 23.0365 47.9952C22.3433 46.3913 21.9966 44.631 21.9965 42.7159C21.9965 40.8246 22.3433 39.0637 23.0365 37.4357C23.7058 35.832 24.662 34.4192 25.9047 33.1984C27.1478 32.0013 28.6072 31.067 30.2807 30.3966C31.9199 29.7634 33.7085 29.4418 35.6459 29.4288H57.56ZM35.6459 35.754C34.3887 35.7805 33.2934 36.0628 32.3607 36.6095C31.3806 37.1841 30.6269 37.9985 30.101 39.0519C29.5752 40.1051 29.312 41.338 29.3119 42.7501C29.3119 43.8036 29.4679 44.751 29.7787 45.589C30.0656 46.4505 30.4962 47.1801 31.0697 47.7784C31.6435 48.401 32.337 48.8686 33.1498 49.1798C33.8876 49.4932 34.7199 49.6586 35.6459 49.6788V49.6798H57.56V49.6759C58.8172 49.6494 59.9125 49.3661 60.8451 48.8195C61.8251 48.2449 62.5789 47.4312 63.1049 46.3781C63.6307 45.3248 63.8939 44.0911 63.894 42.6788C63.894 41.6255 63.7379 40.6789 63.4272 39.8409C63.1403 38.9792 62.7098 38.249 62.1361 37.6505C61.5624 37.028 60.8689 36.5604 60.0561 36.2491C59.3183 35.9358 58.4859 35.7713 57.56 35.7511V35.7501H35.6459V35.754Z" fill="#FF1A00"/>
<path d="M0.0875244 55.4995V29.9285H7.25963V55.4995H0.0875244ZM5.89693 46.4132V40.4514H18.4481V46.4132H5.89693ZM5.89693 35.8903V29.9285H18.986V35.8903H5.89693Z" fill="#FF1A00"/>
<path d="M79.8952 25.5709V-0.00012207H87.0673V25.5709H79.8952ZM72.2569 6.10531V-0.00012207H94.7415V6.10531H72.2569Z" fill="#FF923F"/>
<path d="M47.6295 25.5709L57.3477 -0.00012207H64.6632L74.2738 25.5709H66.8148L59.6786 3.84271H62.2606L54.945 25.5709H47.6295ZM53.9409 21.2612V15.6585H68.2134V21.2612H53.9409Z" fill="#FF1A00"/>
<path d="M24.6346 25.5709V-0.00012207H31.8068V25.5709H24.6346ZM30.4441 25.5709V19.6091H44.1428V25.5709H30.4441ZM30.4441 15.443V9.62492H42.8159V15.443H30.4441ZM30.4441 5.96166V-0.00012207H43.9276V5.96166H30.4441Z" fill="#FF1A00"/>
<path d="M5.80941 25.5709V20.3992H10.5071C11.4156 20.3992 12.1448 20.1598 12.6946 19.6809C13.2445 19.1781 13.5194 18.4958 13.5194 17.6338C13.5194 17.0592 13.3879 16.5684 13.125 16.1613C12.8859 15.7304 12.5392 15.4071 12.085 15.1916C11.6547 14.9762 11.1287 14.8684 10.5071 14.8684H5.80941V9.91223H10.1844C10.9494 9.91223 11.583 9.72069 12.085 9.3376C12.5871 8.95452 12.8381 8.35594 12.8381 7.54189C12.8381 6.72783 12.5871 6.12926 12.085 5.74617C11.583 5.36308 10.9494 5.17154 10.1844 5.17154H5.80941V-0.00012207H12.1926C13.7465 -0.00012207 15.0973 0.299164 16.2448 0.897735C17.4163 1.47236 18.3247 2.27445 18.9702 3.304C19.6157 4.3096 19.9385 5.47083 19.9385 6.78769C19.9385 8.60734 19.293 10.0918 18.002 11.2411C16.711 12.3903 14.8224 13.0487 12.336 13.2163L12.2643 10.7383C14.9658 10.9059 17.0338 11.6481 18.4682 12.965C19.9026 14.2818 20.6198 15.9698 20.6198 18.0289C20.6198 19.5133 20.2493 20.8302 19.5081 21.9794C18.767 23.1048 17.7271 23.9906 16.3883 24.6371C15.0734 25.2596 13.5314 25.5709 11.7623 25.5709H5.80941ZM0 25.5709V-0.00012207H7.02867V25.5709H0Z" fill="#FF1A00"/>
</svg>
